<svg xmlns="http://www.w3.org/2000/svg" viewBox="0 0 300 360">
  <defs>
    <radialGradient id="bg2" cx="50%" cy="40%" r="70%">
      <stop offset="0%" stop-color="#e8d0ff"/>
      <stop offset="100%" stop-color="#c8a8f0"/>
    </radialGradient>
  </defs>
  <rect width="300" height="360" fill="url(#bg2)" rx="20"/>
  <!-- Neck -->
  <rect x="125" y="295" width="50" height="50" fill="#ffd5a8" rx="5"/>
  <!-- Ears -->
  <ellipse cx="47" cy="185" rx="22" ry="26" fill="#ffc896"/>
  <ellipse cx="253" cy="185" rx="22" ry="26" fill="#ffc896"/>
  <!-- Face -->
  <ellipse cx="150" cy="195" rx="103" ry="120" fill="#ffd5a8"/>
  <!-- Left upper butterfly wing (purple) -->
  <path d="M150,155 C130,115 55,100 48,145 C42,180 90,190 150,168 Z" fill="#9b59b6" opacity="0.85"/>
  <!-- Right upper butterfly wing (purple) -->
  <path d="M150,155 C170,115 245,100 252,145 C258,180 210,190 150,168 Z" fill="#9b59b6" opacity="0.85"/>
  <!-- Left lower wing (yellow) -->
  <path d="M150,178 C120,185 65,200 70,235 C75,260 125,250 150,230 Z" fill="#f1c40f" opacity="0.85"/>
  <!-- Right lower wing (yellow) -->
  <path d="M150,178 C180,185 235,200 230,235 C225,260 175,250 150,230 Z" fill="#f1c40f" opacity="0.85"/>
  <!-- Wing decorations -->
  <circle cx="95" cy="138" r="10" fill="white" opacity="0.5"/>
  <circle cx="78" cy="158" r="7" fill="white" opacity="0.4"/>
  <circle cx="205" cy="138" r="10" fill="white" opacity="0.5"/>
  <circle cx="222" cy="158" r="7" fill="white" opacity="0.4"/>
  <circle cx="95" cy="225" r="7" fill="#e67e22" opacity="0.6"/>
  <circle cx="205" cy="225" r="7" fill="#e67e22" opacity="0.6"/>
  <!-- Wing outline dots -->
  <circle cx="107" cy="153" r="23" fill="white" opacity="0.15"/>
  <circle cx="193" cy="153" r="23" fill="white" opacity="0.15"/>
  <!-- Eyebrows -->
  <path d="M86 118 Q107 108 128 118" stroke="#8b5e3c" stroke-width="4" fill="none" stroke-linecap="round"/>
  <path d="M172 118 Q193 108 214 118" stroke="#8b5e3c" stroke-width="4" fill="none" stroke-linecap="round"/>
  <!-- Eye whites -->
  <ellipse cx="107" cy="153" rx="23" ry="19" fill="white"/>
  <ellipse cx="193" cy="153" rx="23" ry="19" fill="white"/>
  <!-- Pupils -->
  <circle cx="109" cy="155" r="14" fill="#4a3220"/>
  <circle cx="109" cy="155" r="9" fill="#6b4a2e"/>
  <circle cx="191" cy="155" r="14" fill="#4a3220"/>
  <circle cx="191" cy="155" r="9" fill="#6b4a2e"/>
  <!-- Eye shine -->
  <circle cx="116" cy="148" r="5" fill="white"/>
  <circle cx="198" cy="148" r="5" fill="white"/>
  <!-- Eyelashes -->
  <path d="M86 141 Q107 131 128 141" stroke="#3d2510" stroke-width="3" fill="none" stroke-linecap="round"/>
  <path d="M172 141 Q193 131 214 141" stroke="#3d2510" stroke-width="3" fill="none" stroke-linecap="round"/>
  <!-- Purple eyeshadow -->
  <path d="M86 141 Q107 133 128 141" fill="#9b59b6" opacity="0.5"/>
  <path d="M172 141 Q193 133 214 141" fill="#9b59b6" opacity="0.5"/>
  <!-- Nose -->
  <ellipse cx="150" cy="197" rx="14" ry="10" fill="#ffc099"/>
  <ellipse cx="143" cy="201" rx="5" ry="4" fill="#e8a07a"/>
  <ellipse cx="157" cy="201" rx="5" ry="4" fill="#e8a07a"/>
  <!-- Mouth -->
  <path d="M123 232 Q150 255 177 232" stroke="#9b59b6" stroke-width="2.5" fill="#cc88ee" stroke-linecap="round"/>
  <path d="M128 232 Q140 226 150 232 Q160 226 172 232" stroke="#9b59b6" stroke-width="2" fill="none"/>
  <!-- Antennas -->
  <path d="M130,95 C120,70 108,50 115,35" stroke="#9b59b6" stroke-width="3" fill="none" stroke-linecap="round"/>
  <circle cx="115" cy="33" r="6" fill="#f1c40f"/>
  <path d="M170,95 C180,70 192,50 185,35" stroke="#9b59b6" stroke-width="3" fill="none" stroke-linecap="round"/>
  <circle cx="185" cy="33" r="6" fill="#f1c40f"/>
  <!-- Center body line -->
  <line x1="150" y1="100" x2="150" y2="300" stroke="#6c3483" stroke-width="3" stroke-linecap="round" opacity="0.6"/>
</svg>
